<svg width="19" height="16" viewBox="0 0 19 16" fill="none" xmlns="http://www.w3.org/2000/svg">
<path d="M2 0C1.46957 0 0.960859 0.210714 0.585786 0.585787C0.210714 0.960859 0 1.46957 0 2V6C0 6.53043 0.210714 7.03914 0.585786 7.41421C0.960859 7.78929 1.46957 8 2 8H16.6667C17.1971 8 17.7058 7.78929 18.0809 7.41421C18.456 7.03914 18.6667 6.53043 18.6667 6V2C18.6667 1.46957 18.456 0.960859 18.0809 0.585787C17.7058 0.210714 17.1971 0 16.6667 0H2ZM2 10.6667C1.46957 10.6667 0.960859 10.8774 0.585786 11.2525C0.210714 11.6275 0 12.1362 0 12.6667V14C0 14.5304 0.210714 15.0391 0.585786 15.4142C0.960859 15.7893 1.46957 16 2 16H6C6.53043 16 7.03914 15.7893 7.41421 15.4142C7.78929 15.0391 8 14.5304 8 14V12.6667C8 12.1362 7.78929 11.6275 7.41421 11.2525C7.03914 10.8774 6.53043 10.6667 6 10.6667H2ZM12.6667 10.6667C12.1362 10.6667 11.6275 10.8774 11.2525 11.2525C10.8774 11.6275 10.6667 12.1362 10.6667 12.6667V14C10.6667 14.5304 10.8774 15.0391 11.2525 15.4142C11.6275 15.7893 12.1362 16 12.6667 16H16.6667C17.1971 16 17.7058 15.7893 18.0809 15.4142C18.456 15.0391 18.6667 14.5304 18.6667 14V12.6667C18.6667 12.1362 18.456 11.6275 18.0809 11.2525C17.7058 10.8774 17.1971 10.6667 16.6667 10.6667H12.6667Z" fill="#1CC600"/>
</svg>
