<svg width="28" height="16" viewBox="0 0 28 16" fill="none" xmlns="http://www.w3.org/2000/svg">
<path d="M1.74365 6.95117C1.19137 6.95117 0.743652 7.39889 0.743652 7.95117C0.743652 8.50346 1.19137 8.95117 1.74365 8.95117V6.95117ZM27.007 8.65828C27.3975 8.26775 27.3975 7.63459 27.007 7.24407L20.643 0.880104C20.2525 0.48958 19.6193 0.48958 19.2288 0.880104C18.8383 1.27063 18.8383 1.90379 19.2288 2.29432L24.8856 7.95117L19.2288 13.608C18.8383 13.9986 18.8383 14.6317 19.2288 15.0222C19.6193 15.4128 20.2525 15.4128 20.643 15.0222L27.007 8.65828ZM1.74365 8.95117H26.2999V6.95117H1.74365V8.95117Z" fill="white"/>
</svg>
