<svg width="20" height="20" viewBox="0 0 20 20" fill="none" xmlns="http://www.w3.org/2000/svg">
<path d="M20 10C20 4.47143 15.5143 0 10 0C4.47143 0 0 4.47143 0 10C0 15.5286 4.47143 20 10 20C15.5143 20 20 15.5286 20 10ZM11 12.1143H8.77143V11.5C8.77143 10.9571 8.88571 10.5 9.11429 10.1C9.34286 9.7 9.77143 9.28572 10.3714 8.82857C10.9571 8.41429 11.3429 8.07143 11.5286 7.81429C11.7286 7.55714 11.8143 7.25714 11.8143 6.92857C11.8143 6.57143 11.6857 6.3 11.4143 6.1C11.1429 5.91429 10.7714 5.82857 10.2857 5.82857C9.45714 5.82857 8.5 6.1 7.42857 6.64286L6.51429 4.81429C7.75714 4.11429 9.08571 3.75714 10.4714 3.75714C11.6286 3.75714 12.5429 4.04286 13.2143 4.58571C13.9 5.14286 14.2286 5.88572 14.2286 6.8C14.2286 7.41429 14.1 7.94286 13.8143 8.38571C13.5429 8.84286 13 9.34286 12.2286 9.9C11.6857 10.3 11.3571 10.6 11.2143 10.8C11.0714 11.0143 11 11.2857 11 11.6143V12.1143ZM8.9 16.0286C8.64286 15.7857 8.51429 15.4286 8.51429 14.9857C8.51429 14.5143 8.62857 14.1571 8.88571 13.9143C9.14286 13.6714 9.5 13.5571 9.98571 13.5571C10.4429 13.5571 10.8 13.6857 11.0571 13.9286C11.3143 14.1714 11.4429 14.5286 11.4429 14.9857C11.4429 15.4143 11.3143 15.7714 11.0571 16.0143C10.8 16.2714 10.4429 16.4 9.98571 16.4C9.51429 16.4 9.15714 16.2714 8.9 16.0286Z" fill="#C22C2D"/>
</svg>
