<svg width="20" height="17" viewBox="0 0 20 17" fill="none" xmlns="http://www.w3.org/2000/svg">
<path d="M3.03571 3.64286C2.87469 3.64286 2.72026 3.57889 2.6064 3.46503C2.49254 3.35117 2.42857 3.19674 2.42857 3.03571C2.42857 2.87469 2.49254 2.72026 2.6064 2.6064C2.72026 2.49254 2.87469 2.42857 3.03571 2.42857H16.3929C16.5539 2.42857 16.7083 2.49254 16.8222 2.6064C16.936 2.72026 17 2.87469 17 3.03571C17 3.19674 16.936 3.35117 16.8222 3.46503C16.7083 3.57889 16.5539 3.64286 16.3929 3.64286H3.03571ZM5.46429 1.21429C5.30326 1.21429 5.14883 1.15032 5.03497 1.03646C4.92111 0.922596 4.85714 0.768167 4.85714 0.607143C4.85714 0.446119 4.92111 0.291689 5.03497 0.177828C5.14883 0.0639666 5.30326 0 5.46429 0H13.9643C14.1253 0 14.2797 0.0639666 14.3936 0.177828C14.5075 0.291689 14.5714 0.446119 14.5714 0.607143C14.5714 0.768167 14.5075 0.922596 14.3936 1.03646C14.2797 1.15032 14.1253 1.21429 13.9643 1.21429H5.46429ZM0 15.1786C0 15.6616 0.1919 16.1249 0.533484 16.4665C0.875068 16.8081 1.33836 17 1.82143 17H17.6071C18.0902 17 18.5535 16.8081 18.8951 16.4665C19.2367 16.1249 19.4286 15.6616 19.4286 15.1786V6.67857C19.4286 6.1955 19.2367 5.73221 18.8951 5.39063C18.5535 5.04904 18.0902 4.85714 17.6071 4.85714H1.82143C1.33836 4.85714 0.875068 5.04904 0.533484 5.39063C0.1919 5.73221 0 6.1955 0 6.67857L0 15.1786ZM7.599 7.36221C7.6937 7.30971 7.80072 7.28348 7.90897 7.28626C8.01722 7.28903 8.12276 7.32071 8.21464 7.378L13.0718 10.4137C13.1591 10.4683 13.2311 10.5442 13.281 10.6342C13.331 10.7243 13.3571 10.8256 13.3571 10.9286C13.3571 11.0315 13.331 11.1328 13.281 11.2229C13.2311 11.313 13.1591 11.3889 13.0718 11.4434L8.21464 14.4791C8.12274 14.5366 8.01713 14.5684 7.90879 14.5712C7.80045 14.5741 7.69333 14.5479 7.59853 14.4953C7.50374 14.4428 7.42474 14.3658 7.36973 14.2724C7.31472 14.1791 7.28571 14.0727 7.28571 13.9643V7.89286C7.28583 7.7845 7.31494 7.67815 7.37003 7.58484C7.42512 7.49153 7.50418 7.41466 7.599 7.36221Z" fill="#979797"/>
</svg>
