<svg width="20" height="20" viewBox="0 0 20 20" fill="none" xmlns="http://www.w3.org/2000/svg">
<path d="M15.8333 1.66699H5C3.995 1.66699 2.5 2.33283 2.5 4.16699V15.8337C2.5 17.6678 3.995 18.3337 5 18.3337H17.5V16.667H5.01C4.625 16.657 4.16667 16.5053 4.16667 15.8337C4.16667 15.7495 4.17417 15.6745 4.18667 15.6062C4.28 15.1262 4.67333 15.0087 5.01 15.0003H17.5V3.33366C17.5 2.89163 17.3244 2.46771 17.0118 2.15515C16.6993 1.84259 16.2754 1.66699 15.8333 1.66699ZM15.8333 9.16699L14.1667 8.33366L12.5 9.16699V3.33366H15.8333V9.16699Z" fill="#979797"/>
</svg>
