<svg width="22" height="21" viewBox="0 0 22 21" fill="none" xmlns="http://www.w3.org/2000/svg">
<path d="M13.5 0H1.5C1.10218 0 0.720644 0.158035 0.43934 0.43934C0.158035 0.720644 0 1.10218 0 1.5V19.5C0 19.8978 0.158035 20.2794 0.43934 20.5607C0.720644 20.842 1.10218 21 1.5 21H13.5C13.8978 21 14.2794 20.842 14.5607 20.5607C14.842 20.2794 15 19.8978 15 19.5V15H7.9725C7.77359 15 7.58282 14.921 7.44217 14.7803C7.30152 14.6397 7.2225 14.4489 7.2225 14.25C7.2225 14.0511 7.30152 13.8603 7.44217 13.7197C7.58282 13.579 7.77359 13.5 7.9725 13.5H15V1.5C15 1.10218 14.842 0.720644 14.5607 0.43934C14.2794 0.158035 13.8978 0 13.5 0Z" fill="#C22C2D"/>
<path d="M17.37 9.95866C17.2265 9.83579 17.042 9.77159 16.8532 9.77888C16.6645 9.78617 16.4854 9.86442 16.3518 9.99799C16.2183 10.1316 16.14 10.3106 16.1327 10.4994C16.1254 10.6881 16.1896 10.8727 16.3125 11.0162L18.8475 13.4987H15V14.9987H18.8475L16.3125 17.5937C16.234 17.6609 16.1702 17.7436 16.1252 17.8367C16.0802 17.9297 16.0549 18.0311 16.0509 18.1344C16.0469 18.2377 16.0643 18.3407 16.102 18.4369C16.1397 18.5331 16.1969 18.6206 16.27 18.6937C16.3431 18.7667 16.4305 18.8239 16.5268 18.8616C16.623 18.8993 16.726 18.9168 16.8293 18.9128C16.9326 18.9088 17.0339 18.8835 17.127 18.8385C17.22 18.7934 17.3028 18.7297 17.37 18.6512L21.75 14.3012L17.37 9.95866Z" fill="#C22C2D"/>
</svg>
