<svg width="22" height="22" viewBox="0 0 22 22" fill="none" xmlns="http://www.w3.org/2000/svg">
<path d="M9.96245 21.9993C10.3024 21.9902 10.6287 21.8428 10.8835 21.5831C11.1383 21.3234 11.3052 20.9681 11.3548 20.5801H8.51611C8.5671 20.9786 8.74187 21.3423 9.00792 21.6033C9.27397 21.8644 9.61318 22.0051 9.96245 21.9993Z" fill="#AEAEAE"/>
<path d="M19.871 18.0192L19.6443 17.8221C19.0011 17.2577 18.4381 16.6104 17.9706 15.8978C17.4599 14.9143 17.1539 13.8403 17.0704 12.7387V9.49427C17.0677 9.10018 17.032 8.70697 16.9637 8.31865C15.8342 8.08999 14.8196 7.48391 14.0917 6.60302C13.3638 5.72214 12.9674 4.62057 12.9695 3.48482V3.07105C12.2733 2.7336 11.5253 2.51169 10.7557 2.41428V1.58675C10.7557 1.35421 10.6619 1.1312 10.4949 0.966767C10.328 0.802337 10.1016 0.709961 9.86547 0.709961C9.62938 0.709961 9.40295 0.802337 9.23601 0.966767C9.06906 1.1312 8.97528 1.35421 8.97528 1.58675V2.44712C7.25205 2.68655 5.67494 3.53194 4.53513 4.82721C3.39531 6.12249 2.76975 7.78019 2.77393 9.49427V12.7387C2.69042 13.8403 2.38437 14.9143 1.87374 15.8978C1.41423 16.6086 0.860316 17.2558 0.226716 17.8221L0 18.0192V19.8713H19.871V18.0192Z" fill="#AEAEAE"/>
<path d="M18.0969 6.3871C19.8606 6.3871 21.2904 4.9573 21.2904 3.19355C21.2904 1.4298 19.8606 0 18.0969 0C16.3331 0 14.9033 1.4298 14.9033 3.19355C14.9033 4.9573 16.3331 6.3871 18.0969 6.3871Z" fill="#C22C2D"/>
</svg>
