<svg width="17" height="17" viewBox="0 0 17 17" fill="none" xmlns="http://www.w3.org/2000/svg">
<path d="M12.2188 15.9375C11.4833 15.9375 10.7643 15.7194 10.1527 15.3108C9.54118 14.9022 9.06454 14.3214 8.78307 13.6419C8.50161 12.9623 8.42797 12.2146 8.57146 11.4933C8.71495 10.7719 9.06912 10.1093 9.5892 9.5892C10.1093 9.06912 10.7719 8.71495 11.4933 8.57146C12.2146 8.42797 12.9623 8.50161 13.6419 8.78307C14.3214 9.06454 14.9022 9.54118 15.3108 10.1527C15.7194 10.7643 15.9375 11.4833 15.9375 12.2188C15.9364 13.2047 15.5442 14.1499 14.8471 14.8471C14.1499 15.5442 13.2047 15.9364 12.2188 15.9375ZM12.2188 9.5625C11.6934 9.5625 11.1798 9.71829 10.743 10.0102C10.3062 10.302 9.96574 10.7169 9.7647 11.2022C9.56365 11.6876 9.51105 12.2217 9.61354 12.737C9.71603 13.2522 9.96902 13.7255 10.3405 14.097C10.712 14.4685 11.1853 14.7215 11.7005 14.824C12.2158 14.9265 12.7499 14.8739 13.2353 14.6728C13.7206 14.4718 14.1355 14.1313 14.4273 13.6945C14.7192 13.2577 14.875 12.7441 14.875 12.2188C14.8743 11.5145 14.5942 10.8393 14.0962 10.3413C13.5982 9.84328 12.923 9.56321 12.2188 9.5625Z" fill="black"/>
<path d="M13.8125 13.0613L12.75 11.9988V10.625H11.6875V12.4387L13.0613 13.8125L13.8125 13.0613Z" fill="black"/>
<path d="M4.25 8.5H7.4375V9.5625H4.25V8.5Z" fill="black"/>
<path d="M4.25 5.3125H10.625V6.375H4.25V5.3125Z" fill="black"/>
<path d="M13.8125 2.125C13.8122 1.84329 13.7002 1.57321 13.501 1.37401C13.3018 1.17481 13.0317 1.06278 12.75 1.0625H2.125C1.8433 1.06278 1.57321 1.17481 1.37401 1.37401C1.17482 1.57321 1.06278 1.84329 1.0625 2.125V9.03125C1.06132 10.0907 1.3487 11.1306 1.89379 12.0391C2.43889 12.9476 3.22111 13.6905 4.1565 14.1881L6.90625 15.6543V14.45L4.65694 13.2504C3.8916 12.8433 3.25155 12.2355 2.80549 11.4922C2.35942 10.7489 2.12418 9.89813 2.125 9.03125V2.125H12.75V6.90625H13.8125V2.125Z" fill="black"/>
</svg>
