<svg width="15" height="14" viewBox="0 0 15 14" fill="none" xmlns="http://www.w3.org/2000/svg">
<path d="M3 10.3333H2.33333C1.97971 10.3333 1.64057 10.1929 1.39052 9.94281C1.14048 9.69276 1 9.35362 1 9V2.33333C1 1.97971 1.14048 1.64057 1.39052 1.39052C1.64057 1.14048 1.97971 1 2.33333 1H13C13.3536 1 13.6928 1.14048 13.9428 1.39052C14.1929 1.64057 14.3333 1.97971 14.3333 2.33333V9C14.3333 9.35362 14.1929 9.69276 13.9428 9.94281C13.6928 10.1929 13.3536 10.3333 13 10.3333H12.3333" stroke="black" stroke-width="1.2" stroke-linecap="round" stroke-linejoin="round"/>
<path d="M7.6665 9.66699L11.6665 13.0003H3.6665L7.6665 9.66699Z" stroke="black" stroke-width="1.2" stroke-linecap="round" stroke-linejoin="round"/>
</svg>
